   <svg
                  id="chat"
                  width="30"
                  height="24"
                  viewBox="0 0 30 24"
                  fill="none"
                  xmlns="http://www.w3.org/2000/svg"
                >
                  <path
                    d="M8.26623 21.4791L8.02612 21.4122L7.79334 21.5013C6.37358 22.0448 5.30715 22.3655 4.54683 22.5546C5.03169 21.723 5.29391 21.1857 5.43083 20.7858C5.54235 20.46 5.57525 20.2152 5.58022 19.9839C5.58269 19.8686 5.58089 19.802 5.57942 19.7481C5.57753 19.6785 5.57621 19.6298 5.58539 19.5244L5.62036 19.1228L5.30636 18.87C3.00351 17.0163 1.63911 14.5523 1.63911 11.9006C1.63911 9.14953 3.10085 6.60642 5.56063 4.72659C8.02092 2.84636 11.4465 1.6628 15.2438 1.6628C19.0411 1.6628 22.4666 2.84636 24.9269 4.72659C27.3867 6.60642 28.8484 9.14953 28.8484 11.9006C28.8484 14.6517 27.3867 17.1949 24.9269 19.0747C22.4666 20.9549 19.0411 22.1385 15.2438 22.1385C14.3796 22.1385 13.0014 22.078 11.6422 21.9625C10.2663 21.8457 8.98048 21.6779 8.26623 21.4791Z"
                    stroke="#AA0808"
                    stroke-width="1.51163"
                  />

                    <circle id="dot1" cx="10" cy="12" r="2" fill="white" opacity="0"></circle>
    <circle id="dot2" cx="15" cy="12" r="2" fill="white" opacity="0"></circle>
    <circle id="dot3" cx="20" cy="12" r="2" fill="white" opacity="0"></circle>
                </svg>