<svg width="19" height="19" viewBox="0 0 19 19" fill="none" xmlns="http://www.w3.org/2000/svg">
<g id="location">
<path id="Fill 278" fill-rule="evenodd" clip-rule="evenodd" d="M9.49909 10.6213C8.30446 10.6213 7.3323 9.70109 7.3323 8.56934C7.3323 7.43759 8.30446 6.51659 9.49909 6.51659C10.6937 6.51659 11.6651 7.43759 11.6651 8.56934C11.6651 9.70109 10.6937 10.6213 9.49909 10.6213ZM13.9435 3.98909C12.7315 2.80484 11.1529 2.15234 9.49909 2.15234C7.84371 2.15234 6.26513 2.80484 5.0523 3.98984C3.82126 5.19284 3.14517 6.80909 3.19821 8.42459C3.34784 13.0026 9.03992 16.5673 9.28297 16.7166L9.49592 16.8478L9.71126 16.7188C9.95351 16.5733 15.6495 13.0948 15.8 8.42384C15.8522 6.80909 15.1753 5.19209 13.9435 3.98909Z" fill="#171717"/>
</g>
</svg>
