<svg id="like" width="27" height="24" viewBox="0 0 27 24" fill="none" xmlns="http://www.w3.org/2000/svg" preserveAspectRatio="xMidYMid meet">
<path d="M24.6147 4.44376L24.615 4.44434C25.9521 7.12236 25.4691 10.2148 22.8293 13.7657L22.8279 13.7676C20.7364 16.5995 17.7157 19.4478 13.2845 22.8134L13.2832 22.8143C13.275 22.8206 13.2625 22.8256 13.2477 22.8256C13.2329 22.8256 13.2204 22.8206 13.2121 22.8143L13.211 22.8135C8.7746 19.4422 5.75921 16.569 3.66541 13.7648C1.01812 10.2142 0.535418 7.12208 1.87234 4.44434L1.87263 4.44376C2.77924 2.62402 5.49216 1.01585 8.77399 1.9356C10.3359 2.377 11.6951 3.32236 12.6319 4.61345L13.2437 5.45649L13.8554 4.61345C14.7924 3.32219 16.1519 2.37674 17.714 1.93543L17.7159 1.93488C20.9851 1.002 23.7068 2.62131 24.6147 4.44376Z" stroke="#AA0808" stroke-width="1.51163"/>
</svg>
