<svg width="21" height="21" viewBox="0 0 21 21" fill="none" xmlns="http://www.w3.org/2000/svg">
<g id="location">
<path id="Fill 278" fill-rule="evenodd" clip-rule="evenodd" d="M10.5005 11.8081C9.18016 11.8081 8.10566 10.7345 8.10566 9.41411C8.10566 8.09374 9.18016 7.01924 10.5005 7.01924C11.8209 7.01924 12.8945 8.09374 12.8945 9.41411C12.8945 10.7345 11.8209 11.8081 10.5005 11.8081ZM15.4128 4.07049C14.0732 2.68886 12.3284 1.92761 10.5005 1.92761C8.67091 1.92761 6.92616 2.68886 5.58566 4.07136C4.22504 5.47486 3.47779 7.36049 3.53641 9.24524C3.70179 14.5862 9.99304 18.7451 10.2617 18.9192L10.497 19.0724L10.735 18.9219C11.0028 18.7521 17.2984 14.6939 17.4647 9.24436C17.5224 7.36049 16.7743 5.47399 15.4128 4.07049Z" fill="white"/>
</g>
</svg>
