<svg width="24" height="25" viewBox="0 0 24 25" fill="none" xmlns="http://www.w3.org/2000/svg">
<g id="message">
<path id="Vector" d="M12 11.5V11M16 11.5V11M8 11.5V11M3.464 17.328C2 16.157 2 15.271 2 11.5C2 7.729 2 5.843 3.464 4.672C4.93 3.5 7.286 3.5 12 3.5C16.714 3.5 19.071 3.5 20.535 4.672C22 5.843 22 7.729 22 11.5C22 15.271 22 16.157 20.535 17.328C19.072 18.5 16.714 18.5 12 18.5C9.49 18.5 8.2 20.238 6 21.5V18.288C4.906 18.125 4.101 17.838 3.464 17.328Z" stroke="white" stroke-width="1.5" stroke-linecap="round" stroke-linejoin="round"/>
</g>
</svg>
