<svg width="48" height="48" viewBox="0 0 48 48" fill="none" xmlns="http://www.w3.org/2000/svg">
<rect width="48" height="48" rx="13" fill="url(#paint0_radial_2_3)"/>
<path fill-rule="evenodd" clip-rule="evenodd" d="M28.4654 29.6832C29.2136 29.6371 29.9581 29.5012 30.6816 29.2749C32.6881 28.6472 34.4085 27.3631 35.5496 25.6414C36.6907 23.9198 37.1819 21.867 36.9396 19.833C36.6972 17.799 35.7363 15.9095 34.2205 14.4865C32.7047 13.0635 30.7279 12.1951 28.6268 12.0291C26.5257 11.8632 24.4304 12.41 22.6979 13.5765C21.2996 14.5178 20.2075 15.8158 19.5345 17.3168C19.2752 17.3328 19.0159 17.3596 18.7571 17.3974C16.6255 17.7086 14.6766 18.7438 13.2565 20.3191C11.8365 21.8943 11.0374 23.9076 11.0013 26.001C10.9651 28.0945 11.6942 30.1327 13.0591 31.7533C14.4239 33.3739 16.336 34.4721 18.4557 34.8526C20.5753 35.2331 22.7653 34.8714 24.6363 33.8316C26.3434 32.8829 27.6842 31.4259 28.4654 29.6832ZM24.5455 29.0838C22.5845 28.3326 20.9047 26.8675 19.8795 25.0784L19.3571 24.0676L21.9381 24.0677C22.7044 25.4048 23.9243 26.4426 25.3899 27.0041C26.8556 27.5655 28.4763 27.616 29.976 27.1468C31.4757 26.6777 32.7615 25.718 33.6143 24.4312C34.4672 23.1445 34.8343 21.6103 34.6532 20.09C34.4721 18.5698 33.7539 17.1576 32.621 16.0941C31.4881 15.0305 30.0106 14.3815 28.4403 14.2574C26.8699 14.1334 25.3039 14.5421 24.009 15.4139C23.1929 15.9633 22.5163 16.6753 22.0195 17.4952C23.0307 17.7056 24.0055 18.0832 24.899 18.6191C26.733 19.7192 28.1062 21.4153 28.7744 23.4059L29.0491 24.099H26.5861C26.0867 22.6112 25.0604 21.3435 23.6897 20.5213C22.3189 19.6991 20.6924 19.3755 19.0993 19.6082C17.5061 19.8408 16.0495 20.6145 14.9881 21.7918C13.9268 22.9692 13.3296 24.4739 13.3026 26.0386C13.2756 27.6032 13.8205 29.1265 14.8405 30.3378C15.8606 31.549 17.2897 32.3698 18.874 32.6542C20.4582 32.9386 22.0949 32.6682 23.4933 31.8911C24.5282 31.316 25.3829 30.491 25.9805 29.5048C25.4937 29.4035 25.0137 29.2632 24.5455 29.0838Z" fill="white" fill-opacity="0.8"/>
<defs>
<radialGradient id="paint0_radial_2_3" cx="0" cy="0" r="1" gradientUnits="userSpaceOnUse" gradientTransform="translate(24 48) rotate(90) scale(31.5 24)">
<stop stop-color="#165BFF"/>
<stop offset="1" stop-color="#5A8BFF"/>
</radialGradient>
</defs>
</svg>
