<svg width="42" height="37" viewBox="0 0 42 37" fill="none" xmlns="http://www.w3.org/2000/svg">
<path d="M10.5676 0.0483317C7.99426 0.37157 5.84043 1.43017 4.01734 3.27262C2.37979 4.92113 1.39564 6.66661 0.830966 8.93735C-0.169314 12.8728 0.556696 16.7516 2.96059 20.3961C4.50135 22.7315 6.49384 24.8729 10.1481 28.1376C12.4713 30.2144 19.562 36.2751 19.9089 36.4771C20.2316 36.6711 20.3526 36.6953 21.0382 36.6953C21.7239 36.6953 21.8449 36.6711 22.1676 36.4771C22.5145 36.2751 29.6213 30.2063 31.9284 28.1376C35.5988 24.8568 37.5751 22.7234 39.1159 20.3961C41.5198 16.7516 42.2458 12.8728 41.2455 8.93735C40.6808 6.66661 39.6967 4.92113 38.0591 3.27262C36.4296 1.63219 34.6872 0.686725 32.4043 0.201869C31.2588 -0.0405546 29.1453 -0.0648008 28.1451 0.161468C25.354 0.767536 23.2163 2.16553 21.2641 4.65446L21.0382 4.93729L20.8204 4.65446C18.8925 2.21402 16.787 0.816021 14.1008 0.201869C13.3022 0.0160097 11.463 -0.0648008 10.5676 0.0483317ZM13.2619 2.51302C15.5528 2.91706 17.5292 4.24233 19.0941 6.43226C19.3603 6.81207 19.6911 7.2646 19.8201 7.45046C20.4171 8.29087 21.6594 8.29087 22.2563 7.45046C22.3854 7.2646 22.7161 6.81207 22.9823 6.43226C25.12 3.44232 28.0967 2.03624 31.3395 2.48069C34.9373 2.97362 37.7445 5.49488 38.8174 9.20402C39.6644 12.1374 39.2933 15.2162 37.7526 17.988C36.4619 20.3072 34.3081 22.7396 30.557 26.1093C28.742 27.7336 21.1108 34.3114 21.0382 34.3114C20.9576 34.3114 13.3587 27.7578 11.5194 26.1093C5.7517 20.9294 3.47687 17.6971 2.92833 13.9071C2.57339 11.4586 3.0816 8.82422 4.31581 6.74742C6.17117 3.6201 9.78508 1.90694 13.2619 2.51302Z" fill="url(#paint0_linear_3074_565)"/>
<path d="M13.2619 2.51302C15.5528 2.91706 17.5292 4.24233 19.0941 6.43226C19.3603 6.81207 19.6911 7.2646 19.8201 7.45046C20.4171 8.29087 21.6594 8.29087 22.2563 7.45046C22.3854 7.2646 22.7161 6.81207 22.9823 6.43226C25.12 3.44232 28.0967 2.03624 31.3395 2.48069C34.9373 2.97362 37.7445 5.49488 38.8174 9.20402C39.6644 12.1374 39.2933 15.2162 37.7526 17.988C36.4619 20.3072 34.3081 22.7396 30.557 26.1093C28.742 27.7336 21.1108 34.3114 21.0382 34.3114C20.9576 34.3114 13.3587 27.7578 11.5194 26.1093C5.7517 20.9294 3.47687 17.6971 2.92833 13.9071C2.57339 11.4586 3.0816 8.82422 4.31581 6.74742C6.17117 3.6201 9.78508 1.90694 13.2619 2.51302Z" fill="url(#paint1_linear_3074_565)"/>
<defs>
<linearGradient id="paint0_linear_3074_565" x1="10.8091" y1="36.6953" x2="43.1968" y2="35.2006" gradientUnits="userSpaceOnUse">
<stop stop-color="#ff4363"/>
<stop offset="1" stop-color="#ff4363"/>
</linearGradient>
<linearGradient id="paint1_linear_3074_565" x1="10.8091" y1="36.6953" x2="43.1968" y2="35.2006" gradientUnits="userSpaceOnUse">
<stop stop-color="#ff4363"/>
<stop offset="1" stop-color="#ff4363"/>
</linearGradient>
</defs>
</svg>
