<svg width="24" height="24" viewBox="0 0 24 24" fill="none" xmlns="http://www.w3.org/2000/svg">
<g id="Frame">
<path id="Vector" d="M18.7284 4H9.27158C8.66912 4 8.09133 4.23198 7.66533 4.6449C7.23933 5.05782 7 5.61786 7 6.20181V12.682C7 13.266 7.23933 13.826 7.66533 14.2389C8.09133 14.6518 8.66912 14.8838 9.27158 14.8838H12.4452L17.2675 17V14.8843H18.7284C19.3309 14.8843 19.9087 14.6523 20.3347 14.2394C20.7607 13.8265 21 13.2664 21 12.6825V6.20181C21 5.61786 20.7607 5.05782 20.3347 4.6449C19.9087 4.23198 19.3309 4 18.7284 4Z" stroke="white" stroke-linecap="round" stroke-linejoin="round"/>
<path id="Vector_2" d="M12 15.9925V16.9384C12 17.8174 11.3155 18.5266 10.4719 18.5266H8.50509L5.44403 20V18.5266H4.52812C3.68452 18.5266 3 17.8174 3 16.9384V12.5832C3 11.7092 3.68452 11 4.52812 11H7.3819" stroke="white" stroke-linecap="round" stroke-linejoin="round"/>
</g>
</svg>
