<svg width="25" height="25" viewBox="0 0 25 25" fill="none" xmlns="http://www.w3.org/2000/svg">
<g id="Frame">
<path id="Vector" d="M12.5 11.975C11.7896 11.975 11.1083 11.6984 10.606 11.2062C10.1036 10.7139 9.82143 10.0462 9.82143 9.35C9.82143 8.65381 10.1036 7.98613 10.606 7.49384C11.1083 7.00156 11.7896 6.725 12.5 6.725C13.2104 6.725 13.8917 7.00156 14.394 7.49384C14.8964 7.98613 15.1786 8.65381 15.1786 9.35C15.1786 9.69472 15.1093 10.0361 14.9747 10.3545C14.8401 10.673 14.6428 10.9624 14.394 11.2062C14.1453 11.4499 13.85 11.6433 13.525 11.7752C13.2001 11.9071 12.8518 11.975 12.5 11.975ZM12.5 2C10.5109 2 8.60322 2.77437 7.1967 4.15277C5.79018 5.53116 5 7.40066 5 9.35C5 14.8625 12.5 23 12.5 23C12.5 23 20 14.8625 20 9.35C20 7.40066 19.2098 5.53116 17.8033 4.15277C16.3968 2.77437 14.4891 2 12.5 2Z" fill="white"/>
</g>
</svg>
