<svg width="20" height="20" viewBox="0 0 20 20" fill="none" xmlns="http://www.w3.org/2000/svg">
<g id="Frame">
<path id="Vector" d="M10 10.075C9.43168 10.075 8.88663 9.85112 8.48477 9.4526C8.08291 9.05409 7.85714 8.51359 7.85714 7.95C7.85714 7.38642 8.08291 6.84591 8.48477 6.4474C8.88663 6.04888 9.43168 5.825 10 5.825C10.5683 5.825 11.1134 6.04888 11.5152 6.4474C11.9171 6.84591 12.1429 7.38642 12.1429 7.95C12.1429 8.22906 12.0874 8.50539 11.9797 8.7632C11.8721 9.02102 11.7142 9.25528 11.5152 9.4526C11.3162 9.64993 11.08 9.80645 10.82 9.91324C10.5601 10.02 10.2814 10.075 10 10.075ZM10 2C8.4087 2 6.88258 2.62687 5.75736 3.74271C4.63214 4.85856 4 6.37196 4 7.95C4 12.4125 10 19 10 19C10 19 16 12.4125 16 7.95C16 6.37196 15.3679 4.85856 14.2426 3.74271C13.1174 2.62687 11.5913 2 10 2Z" fill="#1E1E1E"/>
</g>
</svg>
