<svg width="24" height="24" viewBox="0 0 24 24" fill="none" xmlns="http://www.w3.org/2000/svg">
<g id="close">
<path id="Vector" fill-rule="evenodd" clip-rule="evenodd" d="M18.7346 6.54544C18.8187 6.46147 18.8854 6.36178 18.9309 6.25204C18.9765 6.1423 18.9999 6.02466 19 5.90585C19.0001 5.78704 18.9767 5.66938 18.9313 5.55958C18.8859 5.44978 18.8194 5.35001 18.7354 5.26594C18.6514 5.18188 18.5518 5.11517 18.442 5.06964C18.3323 5.0241 18.2146 5.00063 18.0958 5.00056C17.977 5.00048 17.8594 5.02381 17.7496 5.06921C17.6398 5.11461 17.54 5.18119 17.4559 5.26515L11.9999 10.7213L6.54541 5.26515C6.37564 5.09538 6.14538 5 5.90528 5C5.66519 5 5.43492 5.09538 5.26515 5.26515C5.09538 5.43493 5 5.6652 5 5.9053C5 6.14539 5.09538 6.37566 5.26515 6.54544L10.7212 12L5.26515 17.4546C5.18109 17.5386 5.1144 17.6384 5.06891 17.7483C5.02342 17.8581 5 17.9758 5 18.0947C5 18.2136 5.02342 18.3313 5.06891 18.4411C5.1144 18.551 5.18109 18.6508 5.26515 18.7348C5.43492 18.9046 5.66519 19 5.90528 19C6.02416 19 6.14188 18.9766 6.25172 18.9311C6.36155 18.8856 6.46135 18.8189 6.54541 18.7348L11.9999 13.2787L17.4559 18.7348C17.6257 18.9044 17.8559 18.9996 18.0958 18.9994C18.3358 18.9993 18.5658 18.9038 18.7354 18.7341C18.905 18.5643 19.0001 18.3341 19 18.0941C18.9999 17.8542 18.9044 17.6241 18.7346 17.4546L13.2786 12L18.7346 6.54544Z" fill="currentColor"/>
</g>
</svg>
