<svg width="16" height="16" viewBox="0 0 16 16" fill="none" xmlns="http://www.w3.org/2000/svg">
<path d="M1.22371 8.07751C1.46634 8.32013 1.70897 8.39647 2.18772 8.39647L7.43743 8.42429C7.48595 8.42429 7.52738 8.42429 7.54838 8.4518C7.5691 8.47251 7.5759 8.51423 7.5759 8.55595L7.59661 13.8126C7.60372 14.291 7.68006 14.5337 7.92269 14.7763C8.24876 15.1092 8.7065 15.0538 9.04619 14.721C9.22668 14.5405 9.37226 14.2425 9.50393 13.965L14.8093 2.5229C15.0865 1.94061 15.0519 1.51039 14.7678 1.22605C14.49 0.948807 14.0601 0.914189 13.4777 1.19143L2.03504 6.49661C1.7575 6.62828 1.45953 6.77385 1.27904 6.95434C0.946163 7.29401 0.890831 7.74494 1.22371 8.07781" fill="#F6A114"/>
</svg>
