<svg width="21" height="20" viewBox="0 0 21 20" fill="none" xmlns="http://www.w3.org/2000/svg">
<g id="Frame" clip-path="url(#clip0_195_379)">
<g id="Group">
<path id="Vector" fill-rule="evenodd" clip-rule="evenodd" d="M9.61684 2C8.48189 2.0001 7.36342 2.27159 6.35475 2.79184C5.34608 3.31209 4.47645 4.066 3.81841 4.99068C3.16038 5.91536 2.73302 6.98399 2.572 8.10741C2.41098 9.23083 2.52096 10.3765 2.89276 11.4487C3.26457 12.521 3.88742 13.4888 4.70935 14.2715C5.53128 15.0541 6.52846 15.6288 7.61768 15.9476C8.70691 16.2665 9.8566 16.3203 10.9708 16.1045C12.0851 15.8887 13.1316 15.4096 14.023 14.7071L17.0809 17.765C17.2389 17.9175 17.4504 18.0019 17.6699 18C17.8895 17.9981 18.0995 17.91 18.2547 17.7548C18.41 17.5995 18.4981 17.3895 18.5 17.17C18.5019 16.9504 18.4175 16.7389 18.2649 16.581L15.207 13.5231C16.0343 12.4736 16.5494 11.2125 16.6933 9.88392C16.8373 8.55538 16.6043 7.21314 16.021 6.01081C15.4378 4.80849 14.5278 3.79466 13.3952 3.08535C12.2626 2.37604 10.9532 1.99991 9.61684 2ZM4.17409 9.11717C4.17409 7.67372 4.74752 6.28939 5.76823 5.26871C6.78895 4.24804 8.17333 3.67463 9.61684 3.67463C11.0603 3.67463 12.4447 4.24804 13.4654 5.26871C14.4862 6.28939 15.0596 7.67372 15.0596 9.11717C15.0596 10.5606 14.4862 11.945 13.4654 12.9656C12.4447 13.9863 11.0603 14.5597 9.61684 14.5597C8.17333 14.5597 6.78895 13.9863 5.76823 12.9656C4.74752 11.945 4.17409 10.5606 4.17409 9.11717Z" fill="white"/>
</g>
</g>
<defs>
<clipPath id="clip0_195_379">
<rect width="20" height="20" fill="white" transform="translate(0.5)"/>
</clipPath>
</defs>
</svg>
