<svg width="19" height="19" viewBox="0 0 19 19" fill="none" xmlns="http://www.w3.org/2000/svg">
<path fill-rule="evenodd" clip-rule="evenodd" d="M14.9238 5.10716C14.9915 5.03954 15.0452 4.95925 15.0819 4.87087C15.1186 4.78249 15.1375 4.68776 15.1375 4.59207C15.1376 4.49639 15.1188 4.40163 15.0823 4.3132C15.0457 4.22478 14.9921 4.14442 14.9245 4.07672C14.8568 4.00902 14.7766 3.9553 14.6882 3.91863C14.5998 3.88196 14.5051 3.86306 14.4094 3.863C14.3137 3.86294 14.2189 3.88173 14.1305 3.91829C14.0421 3.95485 13.9617 4.00847 13.894 4.07609L9.49996 8.47016L5.10716 4.07609C4.97043 3.93936 4.78499 3.86255 4.59162 3.86255C4.39826 3.86255 4.21282 3.93936 4.07609 4.07609C3.93936 4.21282 3.86255 4.39826 3.86255 4.59162C3.86255 4.78499 3.93936 4.97043 4.07609 5.10716L8.47016 9.49996L4.07609 13.8928C4.00839 13.9605 3.95469 14.0408 3.91805 14.1293C3.88141 14.2177 3.86255 14.3125 3.86255 14.4083C3.86255 14.504 3.88141 14.5988 3.91805 14.6873C3.95469 14.7757 4.00839 14.8561 4.07609 14.9238C4.21282 15.0605 4.39826 15.1374 4.59162 15.1374C4.68737 15.1374 4.78217 15.1185 4.87063 15.0819C4.95908 15.0452 5.03946 14.9915 5.10716 14.9238L9.49996 10.5298L13.894 14.9238C14.0308 15.0604 14.2161 15.137 14.4094 15.1369C14.6026 15.1368 14.7879 15.0599 14.9245 14.9232C15.061 14.7865 15.1377 14.6011 15.1375 14.4078C15.1374 14.2146 15.0606 14.0293 14.9238 13.8928L10.5298 9.49996L14.9238 5.10716Z" fill="#FB3094"/>
</svg>
