<svg width="30" height="17" viewBox="0 0 30 17" fill="none" xmlns="http://www.w3.org/2000/svg">
<g clip-path="url(#clip0_195_425)">
<path d="M25.4545 5.11551e-05H20V17H25.4545C26.9158 17 28.7447 17 30 17C30 16.2272 30 13.9586 30 12.75V4.25004C30 3.04146 30 0.772725 30 0C29.136 5.11551e-05 26.9158 5.11551e-05 25.4545 5.11551e-05Z" fill="#EC1C24"/>
<path d="M10 0H20V17H10V0Z" fill="#F9CB38"/>
<path d="M4.54546 0C3.01141 0 0.606101 1.81162e-05 1.88554e-05 0C7.31377e-06 0.772727 7.31377e-06 3.09817 7.31377e-06 4.25V12.75C7.31377e-06 13.8514 -5.93973e-06 15.9697 3.23577e-06 17C1.14422 17 2.94667 17 4.54546 17H10V0C10 0 7.55773 0 4.54546 0Z" fill="#25333A"/>
</g>
<defs>
<clipPath id="clip0_195_425">
<rect width="30" height="17" fill="white"/>
</clipPath>
</defs>
</svg>
