<svg width="16" height="17" viewBox="0 0 16 17" fill="none" xmlns="http://www.w3.org/2000/svg">
<g id="Frame">
<path id="Vector" d="M7.5 1.5C8.95869 1.5 10.3576 2.10704 11.3891 3.18759C12.4205 4.26814 13 5.73367 13 7.26179C13 9.69652 11.3669 12.3499 8.14308 15.2503C7.96382 15.4116 7.73526 15.5002 7.49894 15.5C7.26262 15.4998 7.03422 15.4108 6.85523 15.2491L6.642 15.0553C3.56087 12.2305 2 9.64215 2 7.26179C2 5.73367 2.57946 4.26814 3.61091 3.18759C4.64236 2.10704 6.04131 1.5 7.5 1.5ZM7.5 2.38643C6.26572 2.38643 5.082 2.90008 4.20923 3.81439C3.33647 4.7287 2.84615 5.96877 2.84615 7.26179C2.84615 9.33131 4.28349 11.7158 7.19764 14.3869L7.40805 14.5778C7.43364 14.6008 7.46626 14.6135 7.5 14.6135C7.53374 14.6135 7.56637 14.6008 7.59195 14.5778C10.6471 11.8287 12.1538 9.38036 12.1538 7.26179C12.1538 6.62155 12.0335 5.98758 11.7996 5.39607C11.5657 4.80457 11.2229 4.26711 10.7908 3.81439C10.3586 3.36167 9.84558 3.00255 9.28095 2.75754C8.71632 2.51253 8.11115 2.38643 7.5 2.38643ZM7.5 5.04572C8.06104 5.04572 8.59909 5.2792 8.9958 5.69479C9.39252 6.11039 9.61539 6.67405 9.61539 7.26179C9.61539 7.84953 9.39252 8.4132 8.9958 8.82879C8.59909 9.24439 8.06104 9.47787 7.5 9.47787C6.93897 9.47787 6.40091 9.24439 6.0042 8.82879C5.60749 8.4132 5.38462 7.84953 5.38462 7.26179C5.38462 6.67405 5.60749 6.11039 6.0042 5.69479C6.40091 5.2792 6.93897 5.04572 7.5 5.04572ZM7.5 5.93215C7.16338 5.93215 6.84055 6.07223 6.60252 6.32159C6.36449 6.57095 6.23077 6.90915 6.23077 7.26179C6.23077 7.61444 6.36449 7.95264 6.60252 8.20199C6.84055 8.45135 7.16338 8.59144 7.5 8.59144C7.83662 8.59144 8.15945 8.45135 8.39748 8.20199C8.63551 7.95264 8.76923 7.61444 8.76923 7.26179C8.76923 6.90915 8.63551 6.57095 8.39748 6.32159C8.15945 6.07223 7.83662 5.93215 7.5 5.93215Z" fill="white"/>
</g>
</svg>
