<svg width="28" height="28" viewBox="0 0 28 28" fill="none" xmlns="http://www.w3.org/2000/svg">
<path d="M14.886 1.58156L17.8303 8.29719C17.9411 8.54993 18.1176 8.7683 18.3416 8.92953C18.5655 9.09075 18.8286 9.1889 19.1035 9.21375L26.2763 9.85688C27.0878 9.975 27.4116 10.9703 26.8231 11.5434L21.42 16.0825C20.9825 16.45 20.7834 17.0275 20.9038 17.5853L22.4744 24.9375C22.6122 25.7447 21.7656 26.3616 21.0394 25.9788L14.7788 22.3125C14.5426 22.1739 14.2738 22.1008 14 22.1008C13.7262 22.1008 13.4574 22.1739 13.2213 22.3125L6.96064 25.9766C6.23658 26.3572 5.38783 25.7425 5.52564 24.9353L7.09626 17.5831C7.21439 17.0253 7.01751 16.4478 6.58001 16.0803L1.1747 11.5456C0.58845 10.9747 0.9122 9.97719 1.72158 9.85906L8.89439 9.21594C9.16921 9.19109 9.43232 9.09294 9.65626 8.93171C9.8802 8.77049 10.0568 8.55211 10.1675 8.29937L13.1119 1.58375C13.4772 0.84875 14.5228 0.84875 14.886 1.58156Z" fill="#FDD835"/>
<path d="M14.6716 8.69967L14.1728 3.75154C14.1531 3.47592 14.0963 3.00342 14.5381 3.00342C14.8881 3.00342 15.0785 3.73186 15.0785 3.73186L16.5747 7.70436C17.1391 9.21592 16.9072 9.73436 16.3625 10.0406C15.7369 10.3906 14.8138 10.1172 14.6716 8.69967Z" fill="#FFFF8D"/>
<path d="M20.8424 15.6428L25.1343 12.2937C25.3465 12.1165 25.7293 11.8343 25.4231 11.5128C25.1803 11.259 24.524 11.6243 24.524 11.6243L20.7681 13.0922C19.6481 13.4793 18.9043 14.0525 18.8387 14.7743C18.7534 15.7368 19.6174 16.4784 20.8424 15.6428Z" fill="#F4B400"/>
</svg>
