<svg width="40" height="40" viewBox="0 0 40 40" fill="none" xmlns="http://www.w3.org/2000/svg">
<path d="M19.0212 36.5025C19.3495 36.6831 19.7191 36.7753 20.0937 36.7703C20.4684 36.7653 20.8354 36.6631 21.1587 36.4737C25.6387 33.915 33.4212 28.0225 36.4774 20.3687C40.9649 10.4025 30.4299 2.44746 23.1499 8.16871C22.3899 8.76621 21.4349 9.44996 20.7787 10.0962C20.4812 10.3887 19.9574 10.4187 19.6487 10.1387C18.7862 9.35121 17.4349 8.34371 16.5674 7.75746C10.3612 3.55746 -0.932554 9.09371 3.88495 20.9075C5.64995 26.21 14.0599 33.7325 19.0212 36.5025Z" fill="url(#paint0_radial_2013_20)"/>
<path d="M19.0212 36.5025C19.3495 36.6831 19.7191 36.7753 20.0937 36.7703C20.4684 36.7653 20.8354 36.6631 21.1587 36.4737C25.6387 33.915 33.4212 28.0225 36.4774 20.3687C40.9649 10.4025 30.4299 2.44746 23.1499 8.16871C22.3899 8.76621 21.4349 9.44996 20.7787 10.0962C20.4812 10.3887 19.9574 10.4187 19.6487 10.1387C18.7862 9.35121 17.4349 8.34371 16.5674 7.75746C10.3612 3.55746 -0.932554 9.09371 3.88495 20.9075C5.64995 26.21 14.0599 33.7325 19.0212 36.5025Z" fill="url(#paint1_radial_2013_20)"/>
<path d="M19.0212 36.5025C19.3495 36.6831 19.7191 36.7753 20.0937 36.7703C20.4684 36.7653 20.8354 36.6631 21.1587 36.4737C25.6387 33.915 33.4212 28.0225 36.4774 20.3687C40.9649 10.4025 30.4299 2.44746 23.1499 8.16871C22.3899 8.76621 21.4349 9.44996 20.7787 10.0962C20.4812 10.3887 19.9574 10.4187 19.6487 10.1387C18.7862 9.35121 17.4349 8.34371 16.5674 7.75746C10.3612 3.55746 -0.932554 9.09371 3.88495 20.9075C5.64995 26.21 14.0599 33.7325 19.0212 36.5025Z" fill="url(#paint2_radial_2013_20)"/>
<path d="M19.0212 36.5025C19.3495 36.6831 19.7191 36.7753 20.0937 36.7703C20.4684 36.7653 20.8354 36.6631 21.1587 36.4737C25.6387 33.915 33.4212 28.0225 36.4774 20.3687C40.9649 10.4025 30.4299 2.44746 23.1499 8.16871C22.3899 8.76621 21.4349 9.44996 20.7787 10.0962C20.4812 10.3887 19.9574 10.4187 19.6487 10.1387C18.7862 9.35121 17.4349 8.34371 16.5674 7.75746C10.3612 3.55746 -0.932554 9.09371 3.88495 20.9075C5.64995 26.21 14.0599 33.7325 19.0212 36.5025Z" fill="url(#paint3_radial_2013_20)"/>
<path d="M19.0212 36.5025C19.3495 36.6831 19.7191 36.7753 20.0937 36.7703C20.4684 36.7653 20.8354 36.6631 21.1587 36.4737C25.6387 33.915 33.4212 28.0225 36.4774 20.3687C40.9649 10.4025 30.4299 2.44746 23.1499 8.16871C22.3899 8.76621 21.4349 9.44996 20.7787 10.0962C20.4812 10.3887 19.9574 10.4187 19.6487 10.1387C18.7862 9.35121 17.4349 8.34371 16.5674 7.75746C10.3612 3.55746 -0.932554 9.09371 3.88495 20.9075C5.64995 26.21 14.0599 33.7325 19.0212 36.5025Z" fill="url(#paint4_linear_2013_20)"/>
<path d="M19.0212 36.5025C19.3495 36.6831 19.7191 36.7753 20.0937 36.7703C20.4684 36.7653 20.8354 36.6631 21.1587 36.4737C25.6387 33.915 33.4212 28.0225 36.4774 20.3687C40.9649 10.4025 30.4299 2.44746 23.1499 8.16871C22.3899 8.76621 21.4349 9.44996 20.7787 10.0962C20.4812 10.3887 19.9574 10.4187 19.6487 10.1387C18.7862 9.35121 17.4349 8.34371 16.5674 7.75746C10.3612 3.55746 -0.932554 9.09371 3.88495 20.9075C5.64995 26.21 14.0599 33.7325 19.0212 36.5025Z" fill="url(#paint5_linear_2013_20)"/>
<path d="M19.0212 36.5025C19.3495 36.6831 19.7191 36.7753 20.0937 36.7703C20.4684 36.7653 20.8354 36.6631 21.1587 36.4737C25.6387 33.915 33.4212 28.0225 36.4774 20.3687C40.9649 10.4025 30.4299 2.44746 23.1499 8.16871C22.3899 8.76621 21.4349 9.44996 20.7787 10.0962C20.4812 10.3887 19.9574 10.4187 19.6487 10.1387C18.7862 9.35121 17.4349 8.34371 16.5674 7.75746C10.3612 3.55746 -0.932554 9.09371 3.88495 20.9075C5.64995 26.21 14.0599 33.7325 19.0212 36.5025Z" fill="url(#paint6_radial_2013_20)" fill-opacity="0.6"/>
<g filter="url(#filter0_f_2013_20)">
<path d="M19.8849 13.175V21.7037C19.8849 22.835 21.2549 23.3712 21.9599 22.4875C24.1411 19.75 25.9011 16.4237 23.9374 13.7062C23.1849 12.6637 21.7424 11.9962 20.5636 12.2087C20.1236 12.2875 19.8849 12.7275 19.8849 13.1762" fill="#FA1C56"/>
</g>
<g filter="url(#filter1_f_2013_20)">
<path d="M34.0525 17.5375C36.2612 15.3904 36.6084 12.165 34.8279 10.3335C33.0474 8.50199 29.8136 8.75784 27.6048 10.905C25.3961 13.0521 25.0489 16.2775 26.8294 18.109C28.6099 19.9405 31.8437 19.6847 34.0525 17.5375Z" fill="url(#paint7_radial_2013_20)"/>
</g>
<g filter="url(#filter2_f_2013_20)">
<path d="M29.2694 8.02518C30.429 8.17096 31.3939 8.09145 31.4246 7.84761C31.4552 7.60376 30.54 7.28791 29.3804 7.14213C28.2207 6.99635 27.2558 7.07585 27.2251 7.3197C27.1945 7.56355 28.1097 7.8794 29.2694 8.02518Z" fill="#FF7383"/>
</g>
<g filter="url(#filter3_f_2013_20)">
<path d="M11.7399 7.87743C12.7885 7.86468 13.6368 7.71499 13.6347 7.54311C13.6327 7.37122 12.7809 7.24222 11.7323 7.25498C10.6838 7.26774 9.83544 7.41742 9.83753 7.5893C9.83962 7.76119 10.6913 7.89019 11.7399 7.87743Z" fill="#FF93BA" fill-opacity="0.5"/>
</g>
<g filter="url(#filter4_f_2013_20)">
<path d="M18.5561 12.4525L18.9474 25.265C10.3536 16.905 8.69989 11.035 11.9936 9.7175C15.1186 8.4675 17.6186 10.4987 18.5561 12.4525Z" fill="url(#paint8_radial_2013_20)"/>
</g>
<g filter="url(#filter5_f_2013_20)">
<path d="M17.9312 11.7025C16.8812 11.5525 16.5562 10.6813 16.5249 10.265C17.1249 10.89 17.7124 10.9425 17.9312 10.89V11.7025Z" fill="#FF7383"/>
</g>
<defs>
<filter id="filter0_f_2013_20" x="18.3849" y="10.6693" width="7.90381" height="13.7596" filterUnits="userSpaceOnUse" color-interpolation-filters="sRGB">
<feFlood flood-opacity="0" result="BackgroundImageFix"/>
<feBlend mode="normal" in="SourceGraphic" in2="BackgroundImageFix" result="shape"/>
<feGaussianBlur stdDeviation="0.75" result="effect1_foregroundBlur_2013_20"/>
</filter>
<filter id="filter1_f_2013_20" x="24.5667" y="7.98621" width="12.524" height="12.4702" filterUnits="userSpaceOnUse" color-interpolation-filters="sRGB">
<feFlood flood-opacity="0" result="BackgroundImageFix"/>
<feBlend mode="normal" in="SourceGraphic" in2="BackgroundImageFix" result="shape"/>
<feGaussianBlur stdDeviation="0.5625" result="effect1_foregroundBlur_2013_20"/>
</filter>
<filter id="filter2_f_2013_20" x="25.7244" y="5.56921" width="7.20093" height="4.02893" filterUnits="userSpaceOnUse" color-interpolation-filters="sRGB">
<feFlood flood-opacity="0" result="BackgroundImageFix"/>
<feBlend mode="normal" in="SourceGraphic" in2="BackgroundImageFix" result="shape"/>
<feGaussianBlur stdDeviation="0.75" result="effect1_foregroundBlur_2013_20"/>
</filter>
<filter id="filter3_f_2013_20" x="8.71252" y="6.12915" width="6.04724" height="2.87415" filterUnits="userSpaceOnUse" color-interpolation-filters="sRGB">
<feFlood flood-opacity="0" result="BackgroundImageFix"/>
<feBlend mode="normal" in="SourceGraphic" in2="BackgroundImageFix" result="shape"/>
<feGaussianBlur stdDeviation="0.5625" result="effect1_foregroundBlur_2013_20"/>
</filter>
<filter id="filter4_f_2013_20" x="8.16602" y="7.08289" width="13.0314" height="20.4321" filterUnits="userSpaceOnUse" color-interpolation-filters="sRGB">
<feFlood flood-opacity="0" result="BackgroundImageFix"/>
<feBlend mode="normal" in="SourceGraphic" in2="BackgroundImageFix" result="shape"/>
<feGaussianBlur stdDeviation="1.125" result="effect1_foregroundBlur_2013_20"/>
</filter>
<filter id="filter5_f_2013_20" x="15.7749" y="9.51501" width="2.90625" height="2.9375" filterUnits="userSpaceOnUse" color-interpolation-filters="sRGB">
<feFlood flood-opacity="0" result="BackgroundImageFix"/>
<feBlend mode="normal" in="SourceGraphic" in2="BackgroundImageFix" result="shape"/>
<feGaussianBlur stdDeviation="0.375" result="effect1_foregroundBlur_2013_20"/>
</filter>
<radialGradient id="paint0_radial_2013_20" cx="0" cy="0" r="1" gradientUnits="userSpaceOnUse" gradientTransform="translate(19.8537 7.04246) rotate(90) scale(28.7306 30.5026)">
<stop stop-color="#FC0000"/>
<stop offset="0.528" stop-color="#FF3B79"/>
<stop offset="1" stop-color="#F724B3"/>
</radialGradient>
<radialGradient id="paint1_radial_2013_20" cx="0" cy="0" r="1" gradientUnits="userSpaceOnUse" gradientTransform="translate(28.7812 14.2037) rotate(134.402) scale(26.5809 49.7885)">
<stop offset="0.798" stop-color="#C82092" stop-opacity="0"/>
<stop offset="0.908" stop-color="#C82092"/>
</radialGradient>
<radialGradient id="paint2_radial_2013_20" cx="0" cy="0" r="1" gradientUnits="userSpaceOnUse" gradientTransform="translate(24.9962 22.2362) rotate(-158.663) scale(28.4362 40.1987)">
<stop offset="0.41" stop-color="#B91D43" stop-opacity="0"/>
<stop offset="0.834" stop-color="#B91D43"/>
</radialGradient>
<radialGradient id="paint3_radial_2013_20" cx="0" cy="0" r="1" gradientUnits="userSpaceOnUse" gradientTransform="translate(19.4499 17.27) rotate(90) scale(24.749)">
<stop offset="0.671" stop-color="#FF7AF2" stop-opacity="0"/>
<stop offset="0.934" stop-color="#FFBCE6"/>
</radialGradient>
<linearGradient id="paint4_linear_2013_20" x1="22.1812" y1="20.1662" x2="32.1974" y2="32.0862" gradientUnits="userSpaceOnUse">
<stop offset="0.694" stop-color="#FF7AF2" stop-opacity="0"/>
<stop offset="0.934" stop-color="#FFBCE6"/>
</linearGradient>
<linearGradient id="paint5_linear_2013_20" x1="20.9399" y1="20.6625" x2="9.1862" y2="33.9062" gradientUnits="userSpaceOnUse">
<stop offset="0.694" stop-color="#FF7AF2" stop-opacity="0"/>
<stop offset="0.934" stop-color="#FFBCE6"/>
</linearGradient>
<radialGradient id="paint6_radial_2013_20" cx="0" cy="0" r="1" gradientUnits="userSpaceOnUse" gradientTransform="translate(22.9337 16.12) rotate(164.618) scale(21.5182 22.7252)">
<stop offset="0.802" stop-color="#FF73A6" stop-opacity="0"/>
<stop offset="1" stop-color="#FF93BA"/>
</radialGradient>
<radialGradient id="paint7_radial_2013_20" cx="0" cy="0" r="1" gradientUnits="userSpaceOnUse" gradientTransform="translate(34.7143 10.2267) rotate(128.737) scale(9.11421 12.1195)">
<stop stop-color="#FF7383"/>
<stop offset="1" stop-color="#FF7383" stop-opacity="0"/>
</radialGradient>
<radialGradient id="paint8_radial_2013_20" cx="0" cy="0" r="1" gradientUnits="userSpaceOnUse" gradientTransform="translate(20.4311 17.3) rotate(-135.591) scale(15.8576 28.15)">
<stop stop-color="#FF6274"/>
<stop offset="1" stop-color="#FF6274" stop-opacity="0"/>
</radialGradient>
</defs>
</svg>
