<svg id="book" width="17" height="16" viewBox="0 0 17 16" fill="none" xmlns="http://www.w3.org/2000/svg">
<path fill-rule="evenodd" clip-rule="evenodd" d="M2.60116 1.96342C2.54513 1.99849 2.47137 2.07302 2.43722 2.12905C2.3795 2.22367 2.37509 2.28774 2.375 3.03367L2.37488 3.83642L2.50769 3.85314C2.58075 3.86233 2.87956 3.89949 3.17175 3.93574C4.85769 4.14489 6.47228 4.59658 8.08006 5.3088L8.50362 5.49646L8.90019 5.32064C10.5738 4.57877 12.3358 4.09399 14.0019 3.91708C14.2672 3.88892 14.5159 3.85983 14.5546 3.85249L14.6249 3.83908L14.6248 3.03499C14.6247 2.28774 14.6202 2.22371 14.5625 2.12905C14.5284 2.07302 14.4546 1.99849 14.3986 1.96342C14.3013 1.90252 14.2594 1.90017 13.4686 1.91167C12.5482 1.92508 12.2569 1.96577 11.6441 2.16649C10.4012 2.57364 9.30281 3.45227 8.66463 4.54986C8.58259 4.69089 8.50847 4.80633 8.49988 4.80633C8.49128 4.80633 8.41716 4.69089 8.33512 4.54986C7.69694 3.45227 6.59856 2.57364 5.35566 2.16649C4.74281 1.96577 4.45153 1.92508 3.53113 1.91167C2.74038 1.90017 2.69841 1.90252 2.60116 1.96342ZM0.726156 4.77761C0.592188 4.85927 0.500125 5.01517 0.5 5.16061C0.499813 5.32899 2.36231 13.7094 2.42878 13.8393C2.50837 13.9949 2.66503 14.0903 2.84044 14.0901C3.00063 14.0899 3.06806 14.0537 3.32297 13.8309C3.70466 13.4973 4.2855 13.2502 4.84881 13.1817C5.18256 13.1411 5.46984 13.1612 5.828 13.2501C6.02478 13.299 7.73056 13.8552 7.97644 13.9507C8.02834 13.9709 8.03109 13.7765 8.03053 10.1327L8.02994 6.29339L7.78834 6.18574C6.708 5.70427 5.7145 5.36755 4.64278 5.11967C3.56562 4.87055 2.26906 4.71536 1.2655 4.71546C0.884 4.71549 0.814969 4.72345 0.726156 4.77761ZM14.7968 4.75105C12.9006 4.90024 10.8935 5.41502 9.25769 6.17167L8.96863 6.30539V10.1353C8.96863 12.2418 8.97278 13.9653 8.97784 13.9653C8.98291 13.9653 9.42584 13.8179 9.96216 13.6378C11.2926 13.191 11.3667 13.1728 11.8436 13.1735C12.1371 13.174 12.3042 13.1911 12.5155 13.2424C12.8894 13.3332 13.3675 13.5705 13.6364 13.7987C13.9456 14.0612 13.9971 14.0899 14.1593 14.0901C14.3347 14.0903 14.4914 13.9949 14.571 13.8393C14.6374 13.7094 16.4999 5.32899 16.4998 5.16061C16.4996 5.01517 16.4076 4.85927 16.2736 4.77761C16.182 4.72174 16.1201 4.71592 15.6561 4.71977C15.3725 4.72208 14.9858 4.73617 14.7968 4.75105Z" fill="currentColor"/>
</svg>
