<svg id="cooking" width="17" height="16" viewBox="0 0 17 16" fill="none" xmlns="http://www.w3.org/2000/svg">
<path fill-rule="evenodd" clip-rule="evenodd" d="M7.89127 0.0326643C6.87161 0.192289 5.91983 0.721602 5.28133 1.48416L5.08502 1.71863H4.70427C2.71539 1.71863 1.00583 3.1157 0.574359 5.09363C0.492141 5.47054 0.492141 6.40423 0.574359 6.78113C0.863141 8.10495 1.70905 9.17485 2.9268 9.75654L3.25002 9.91094V11.5492V13.1874H8.50002H13.75V11.5492V9.91094L14.0732 9.75654C14.7972 9.41073 15.3593 8.9262 15.8031 8.26551C16.0835 7.84823 16.3384 7.22382 16.4412 6.70301C16.5074 6.36757 16.4982 5.42879 16.4254 5.09363C16.0992 3.59141 15.033 2.40198 13.5829 1.92241C13.1594 1.78238 12.7567 1.71863 12.2956 1.71863H11.9147L11.7182 1.48113C11.1571 0.802758 10.3352 0.308133 9.40627 0.0897581C9.0998 0.0176956 8.2028 -0.0160857 7.89127 0.0326643ZM8.74808 6.05813C8.78998 6.08838 8.85326 6.15195 8.8887 6.19941C8.95155 6.28357 8.95314 6.32045 8.95314 7.68738C8.95314 9.05432 8.95155 9.0912 8.8887 9.17535C8.77305 9.33026 8.66898 9.38691 8.50002 9.38691C8.33108 9.38691 8.22702 9.33029 8.11133 9.17538C8.04908 9.09207 8.04655 9.04538 8.03723 7.80232C8.03192 7.09457 8.03636 6.45516 8.04714 6.38138C8.07073 6.21998 8.21314 6.04423 8.35477 6.00179C8.4813 5.96388 8.65123 5.98823 8.74808 6.05813ZM5.17561 6.33185C5.3302 6.40523 5.38836 6.50754 5.47714 6.86226C5.62773 7.46407 6.03673 8.12563 6.50942 8.53204C6.66211 8.66332 6.71877 8.77557 6.71877 8.94682C6.71877 9.1347 6.61742 9.27838 6.43014 9.35601C6.18723 9.45666 6.08133 9.40648 5.68498 9.00279C5.18983 8.49851 4.83033 7.9102 4.63292 7.28113C4.52498 6.9372 4.51448 6.57435 4.60939 6.46754C4.77145 6.28513 4.97458 6.23648 5.17561 6.33185ZM12.2125 6.32504C12.2589 6.3492 12.332 6.4066 12.375 6.45263C12.4446 6.5272 12.453 6.56254 12.4518 6.77591C12.4501 7.08776 12.3375 7.44966 12.0924 7.93207C11.8699 8.3697 11.598 8.73882 11.2449 9.08235C10.9203 9.39816 10.7946 9.44913 10.5699 9.35601C10.3824 9.27829 10.2813 9.13473 10.2813 8.94632C10.2813 8.76279 10.312 8.71116 10.5786 8.44744C11.0871 7.94451 11.4138 7.37976 11.5468 6.77363C11.576 6.6406 11.629 6.49482 11.6645 6.44963C11.7864 6.29463 12.0422 6.23645 12.2125 6.32504ZM3.25014 14.8983C3.25023 15.615 3.2548 15.6792 3.31236 15.7736C3.34652 15.8296 3.42027 15.9034 3.4763 15.9375C3.5768 15.9988 3.64377 15.9997 8.50002 15.9997C13.3563 15.9997 13.4232 15.9988 13.5237 15.9375C13.5798 15.9034 13.6535 15.8296 13.6877 15.7736C13.7452 15.6792 13.7498 15.615 13.7499 14.8983L13.75 14.1249H8.50002H3.25002L3.25014 14.8983Z" fill="currentColor"/>
</svg>
