<svg id="sport" width="16" height="16" viewBox="0 0 16 16" fill="none" xmlns="http://www.w3.org/2000/svg">
<path fill-rule="evenodd" clip-rule="evenodd" d="M10.0192 0.0483441C9.93284 0.0791673 9.79898 0.141815 9.72171 0.187596C9.55688 0.285229 8.18787 1.64993 8.18787 1.71658C8.18787 1.74156 9.55266 3.12591 11.2208 4.79296C13.6703 7.24092 14.2653 7.82021 14.3143 7.80469C14.3477 7.79408 14.6992 7.45809 15.0955 7.05801C15.97 6.17512 16 6.12656 16 5.59521C16 5.28864 15.9931 5.25209 15.897 5.04934C15.8067 4.85867 15.7118 4.74924 15.1239 4.1575L14.4536 3.48296L14.8226 3.10745C15.2375 2.68528 15.3077 2.55253 15.3049 2.19577C15.3023 1.85843 15.2097 1.7122 14.6285 1.12728C14.0525 0.547586 13.9249 0.463972 13.58 0.440221C13.2245 0.415719 13.0669 0.496204 12.6262 0.927291L12.2583 1.28722L11.7121 0.749236C11.0485 0.0955646 10.9183 0.017959 10.4579 0.00203102C10.2469 -0.00526016 10.1367 0.00638069 10.0192 0.0483441ZM6.99811 7.01896L4.47775 9.53795L5.47945 10.5394L6.48116 11.5409L8.994 9.0297C10.3761 7.64854 11.5068 6.50429 11.5068 6.48692C11.5068 6.45607 9.56465 4.49997 9.534 4.49997C9.52545 4.49997 8.38428 5.63351 6.99811 7.01896ZM0.947037 8.9044C0.307288 9.54089 0.219209 9.641 0.115726 9.84938C0.00435226 10.0737 0 10.0948 0 10.4126C0 10.7203 0.00695108 10.7575 0.101824 10.9577C0.190622 11.1451 0.289722 11.2594 0.87474 11.8496L1.54583 12.5266L1.17711 12.9021C0.761174 13.3256 0.69229 13.4565 0.695139 13.8181C0.697769 14.157 0.803319 14.3202 1.40333 14.9129C2.00839 15.5106 2.09149 15.561 2.47358 15.561C2.83466 15.561 2.95461 15.4965 3.38665 15.0705L3.74081 14.7213L4.28741 15.2598C4.74852 15.714 4.86738 15.814 5.04714 15.8991C5.24515 15.9928 5.2836 16 5.58904 16C6.1207 16 6.1693 15.97 7.05271 15.0961C7.45303 14.7 7.78921 14.3487 7.79983 14.3153C7.81536 14.2664 7.23573 13.6717 4.78632 11.2236C3.11828 9.55648 1.73307 8.1925 1.70809 8.1925C1.68307 8.1925 1.34062 8.51287 0.947037 8.9044Z" fill="currentColor"/>
</svg>
