<svg id="drama" width="16" height="16" viewBox="0 0 16 16" fill="none" xmlns="http://www.w3.org/2000/svg">
<path fill-rule="evenodd" clip-rule="evenodd" d="M10.4207 1.27174C9.5332 1.34462 8.65927 1.50296 8.02686 1.70552C7.81027 1.7749 7.59542 1.86124 7.54942 1.89743C7.40583 2.01037 7.34255 2.17649 7.34255 2.44043V2.67605L7.72536 2.67674C8.11808 2.67743 8.30008 2.7209 8.39605 2.83693C8.41686 2.86212 8.5933 3.2233 8.78814 3.63959C9.08899 4.2824 9.15698 4.40459 9.23933 4.45034C9.29264 4.47993 9.39642 4.54637 9.46995 4.59793C9.5882 4.68087 9.62933 4.69168 9.82692 4.69168C10.0245 4.69168 10.0656 4.68087 10.1839 4.59793C10.4867 4.38555 10.6315 4.34843 10.805 4.43871C11.0165 4.54874 11.1121 4.76018 11.054 4.98918C10.9758 5.29727 10.371 5.6448 9.91289 5.6448C9.76474 5.6448 9.74673 5.65159 9.76252 5.70134C9.77239 5.7324 9.98145 6.18593 10.2271 6.70915C10.4728 7.23234 10.6927 7.70687 10.7158 7.76362C10.742 7.82821 10.7735 7.86074 10.8 7.85059C10.8233 7.84168 10.9654 7.81121 11.1159 7.7829C11.5192 7.70702 12.1395 7.73449 12.5081 7.84452C12.943 7.9744 13.3357 8.19177 13.6564 8.48002C13.8529 8.65671 13.905 8.75602 13.905 8.95337C13.905 9.12593 13.8169 9.26421 13.6529 9.34905C13.4597 9.44893 13.3023 9.40355 13.0124 9.16443C12.6 8.82427 12.196 8.67605 11.6815 8.67605C11.5149 8.67605 11.3062 8.69274 11.2178 8.71315C11.0775 8.74555 11.0594 8.75846 11.0753 8.81471C11.2098 9.28965 11.282 10.3368 11.2196 10.9088C11.1871 11.2075 11.0913 11.7477 11.0441 11.8989C11.0313 11.9398 11.077 11.9631 11.2734 12.0161C11.6383 12.1146 11.8105 12.1038 12.2726 11.9534C14.0639 11.3706 15.4265 9.8959 15.8571 8.0738C15.9956 7.48768 16.0028 7.30755 15.9927 4.63927C15.9832 2.13752 15.9827 2.11743 15.9178 2.0299C15.8139 1.88971 15.6671 1.8074 15.3455 1.70902C14.7152 1.51621 14.1822 1.4094 13.3738 1.31387C12.8761 1.25505 10.9572 1.22768 10.4207 1.27174ZM7.07692 3.64893C4.97889 3.91243 1.87561 5.37059 0.359016 6.80549C0.207203 6.94915 0.064047 7.11193 0.0408908 7.16724C-0.056953 7.40099 -0.0566717 7.40171 0.953797 9.55555C2.07048 11.9358 2.1117 12.0197 2.32498 12.3479C3.15745 13.6289 4.50848 14.4912 6.07692 14.7426C6.43764 14.8004 7.32139 14.7919 7.6863 14.7271C8.12095 14.65 8.25589 14.5717 8.68186 14.1496C9.35952 13.478 9.77177 12.8101 10.0549 11.9252C10.4055 10.829 10.3971 9.71446 10.0297 8.60774C9.88248 8.16405 7.90533 3.92171 7.78414 3.7894C7.62727 3.61809 7.5092 3.59465 7.07692 3.64893ZM13.2731 4.51049C13.4558 4.65718 13.5769 4.7073 13.7488 4.7073C13.9218 4.7073 14.0418 4.65724 14.2286 4.50718C14.3322 4.42387 14.3743 4.41043 14.531 4.41043C14.6658 4.41043 14.7358 4.42721 14.8012 4.47515C14.936 4.57409 15.0045 4.72874 14.9896 4.9013C14.9739 5.08455 14.8734 5.22252 14.6454 5.37384C14.3699 5.55668 14.1762 5.61959 13.8336 5.63737C13.5614 5.65152 13.4996 5.64409 13.2711 5.56974C12.956 5.46721 12.6303 5.24068 12.5477 5.06652C12.4783 4.92021 12.495 4.71934 12.5874 4.58955C12.7415 4.37318 13.057 4.3368 13.2731 4.51049ZM7.80545 6.72099C8.11061 6.80221 8.24848 6.95446 8.24867 7.21049C8.24892 7.49252 8.01717 7.69965 7.7488 7.65727C7.67145 7.64505 7.51502 7.63374 7.40114 7.63212C7.22283 7.62959 7.17727 7.64112 7.07302 7.71505C7.00323 7.76452 6.90498 7.88362 6.84117 7.99599C6.78027 8.10324 6.68327 8.2228 6.62561 8.26168C6.43248 8.39183 6.13445 8.3353 5.99717 8.14252C5.7053 7.73262 6.28792 6.9243 7.02039 6.72296C7.2218 6.66759 7.60127 6.66665 7.80545 6.72099ZM4.3318 8.40965C4.63392 8.50027 4.77642 8.76287 4.67195 9.03643C4.57433 9.29209 4.38877 9.36874 4.03095 9.30124C3.67823 9.23468 3.45142 9.34912 3.2737 9.68324C3.1527 9.9108 3.03336 9.99377 2.82692 9.99377C2.56233 9.99377 2.36311 9.7983 2.36364 9.53924C2.36423 9.25234 2.72602 8.74999 3.0722 8.55534C3.22564 8.46909 3.45495 8.38449 3.6238 8.35187C3.75783 8.32599 4.16323 8.35905 4.3318 8.40965ZM8.27798 9.89377C8.40702 9.95959 8.53098 10.1618 8.52899 10.3031C8.52708 10.4378 8.35511 10.8221 8.17698 11.0898C7.85442 11.5746 7.34805 11.991 6.81992 12.2059C6.41102 12.3722 6.21042 12.4082 5.6863 12.4094C5.27533 12.4103 5.16195 12.3995 4.93814 12.3384C4.51386 12.2224 4.40323 12.1245 4.37998 11.8442C4.36936 11.7159 4.38055 11.6571 4.4308 11.5764C4.57027 11.3525 4.74023 11.3136 5.1298 11.4166C5.37752 11.482 5.47167 11.4915 5.76442 11.4804C6.32748 11.459 6.73245 11.2819 7.14055 10.8785C7.31886 10.7022 7.3948 10.5947 7.52664 10.3316C7.70698 9.97187 7.72189 9.95162 7.85817 9.88115C7.9852 9.81549 8.1333 9.81993 8.27798 9.89377Z" fill="currentColor"/>
</svg>
