<svg id="palm" width="16" height="16" viewBox="0 0 16 16" fill="none" xmlns="http://www.w3.org/2000/svg">
<path fill-rule="evenodd" clip-rule="evenodd" d="M3.92248 0.0347637C3.28235 0.127982 2.61004 0.40517 2.05366 0.805264C1.71498 1.04886 1.61588 1.23405 1.68566 1.49323C1.74285 1.70558 1.8186 1.76426 2.41482 2.05801C3.29979 2.49408 4.01844 2.99942 4.72698 3.68395C5.1731 4.11495 5.37076 4.34598 5.39435 4.46395C5.42044 4.59442 5.2721 4.74992 5.12154 4.74992C5.03235 4.74992 4.97863 4.70679 4.69291 4.40564C4.40929 4.10673 3.84226 3.58639 3.72691 3.51923C3.62279 3.45861 2.8646 4.02558 2.52501 4.41795C1.80457 5.25048 1.47632 6.18008 1.50516 7.30608C1.51669 7.7567 1.52401 7.80811 1.59479 7.93523C1.69941 8.12317 1.89513 8.22892 2.10323 8.20995C2.22866 8.19851 2.31348 8.15501 2.61885 7.94551C3.29869 7.47911 4.10291 7.07039 4.87498 6.79895L5.2031 6.68358L5.42185 6.22489C5.80629 5.41876 6.3221 4.56114 6.8446 3.85929C7.08563 3.53554 7.18435 3.43755 7.36094 3.34654C7.88038 3.07898 8.56638 3.32298 8.83554 3.87101C8.90838 4.01939 8.92169 4.08579 8.92082 4.29679C8.91988 4.52833 8.90563 4.58254 8.72804 5.03117C8.54554 5.49214 8.27098 6.2832 8.28857 6.2973C8.29313 6.30095 8.41638 6.34317 8.56248 6.39114C9.86057 6.81736 11.1154 7.61154 12.1772 8.67889C12.4042 8.90708 12.6269 9.10783 12.672 9.12498C12.9199 9.21926 13.2271 9.10079 13.3394 8.86755C13.4902 8.55436 13.5934 7.95264 13.5936 7.38583C13.5941 5.70136 12.6931 4.23201 11.3233 3.68351C10.972 3.54286 10.572 3.46664 10.1098 3.45226C9.71841 3.44011 9.70044 3.43661 9.63279 3.35867C9.54129 3.25326 9.54329 3.11945 9.63801 3.00948L9.71354 2.92179L10.1302 2.92433C10.9131 2.92908 11.5876 3.13145 12.2185 3.55095L12.4282 3.69045L12.7918 3.58023C12.9918 3.51961 13.3899 3.42517 13.6764 3.37033C14.1364 3.28229 14.2097 3.25979 14.3034 3.17751C14.4469 3.05148 14.5 2.93814 14.5 2.75758C14.5 2.55136 14.3839 2.37511 13.9978 1.99508C13.236 1.2452 12.3014 0.833576 11.26 0.789139C9.83319 0.728264 8.57479 1.37439 7.72782 2.60267C7.66919 2.6877 7.59432 2.75642 7.54754 2.76817C7.44651 2.79351 7.28948 2.72998 7.24423 2.64539C7.15916 2.48648 7.22332 2.35251 7.61673 1.86764L7.78744 1.65723L7.62629 1.4547C7.05119 0.731951 6.13069 0.201139 5.18748 0.048295C4.86869 -0.00339255 4.23116 -0.010205 3.92248 0.0347637ZM7.57191 3.84442C7.39973 3.95786 6.82001 4.78533 6.38641 5.53661C5.62413 6.85733 5.00273 8.5017 4.62438 10.1993C4.57119 10.4379 4.53476 10.6516 4.54341 10.6741C4.56632 10.7338 4.94063 10.841 5.19898 10.862C5.56504 10.8916 5.65623 10.9501 5.65623 11.1555C5.65623 11.2185 5.62769 11.2813 5.57535 11.3336C5.49779 11.4112 5.48329 11.4139 5.22379 11.3987C5.07491 11.39 4.83644 11.3513 4.69388 11.3126C4.55132 11.274 4.42988 11.2475 4.42404 11.2539C4.40338 11.2765 4.24973 12.3972 4.20394 12.8593C4.12907 13.6149 4.09523 14.157 4.07607 14.9062C4.05829 15.6027 4.05879 15.6105 4.13126 15.7337C4.17148 15.802 4.26035 15.8897 4.32873 15.9285C4.45266 15.9986 4.45801 15.9989 5.86873 15.9994C7.43007 16 7.37404 16.0066 7.55629 15.799C7.65563 15.6859 7.70613 15.5217 7.67966 15.3979C7.67144 15.3595 7.61498 15.096 7.55416 14.8124C7.49335 14.5288 7.43485 14.2457 7.42416 14.1832L7.40473 14.0695L7.16954 14.1442C6.67526 14.3012 5.88316 14.3667 5.68973 14.2667C5.54673 14.1928 5.51563 14.0054 5.6236 13.8681C5.68213 13.7937 5.70344 13.7897 6.13141 13.7715C6.58869 13.7522 6.8201 13.7109 7.13794 13.592L7.31857 13.5244L7.29985 13.395C7.25079 13.0559 7.18798 12.4342 7.15416 11.953C7.1176 11.4328 7.13119 9.73314 7.17551 9.28898L7.19498 9.09367L7.07404 9.09354C6.93326 9.09342 6.48082 9.02283 6.29019 8.97126C6.21776 8.95167 6.13691 8.90476 6.11051 8.86708C6.03551 8.76001 6.04976 8.60358 6.14298 8.51033C6.23235 8.42095 6.25244 8.42104 6.73435 8.5127C6.87185 8.53886 7.04385 8.56073 7.11657 8.56133C7.27035 8.56261 7.24529 8.62704 7.35898 7.93742C7.51973 6.96248 7.84379 5.80451 8.23163 4.81929C8.32766 4.57539 8.40591 4.34398 8.40554 4.30505C8.40432 4.18058 8.2916 3.97976 8.17151 3.88817C8.01276 3.76708 7.72154 3.74583 7.57191 3.84442Z" fill="currentColor"/>
</svg>
