<svg id="science" width="16" height="16" viewBox="0 0 16 16" fill="none" xmlns="http://www.w3.org/2000/svg">
<path fill-rule="evenodd" clip-rule="evenodd" d="M13.5516 0.0423711C13.0091 0.178777 12.4992 0.592152 12.26 1.08925C12.0995 1.42284 12.0204 1.79793 12.0462 2.10293C12.0673 2.35231 12.1649 2.69987 12.2638 2.87778L12.3297 2.99618L11.05 4.27622C10.3461 4.98025 9.76084 5.55625 9.74937 5.55625C9.7379 5.55625 9.65372 5.50696 9.56228 5.44678C8.95334 5.04575 8.02168 4.90421 7.27393 5.09915C6.91065 5.19387 6.532 5.3699 6.25846 5.57128L6.06212 5.71581L5.85353 5.53771C5.73881 5.43978 5.44618 5.191 5.20328 4.9849L4.76162 4.61018L4.82225 4.47309C4.85559 4.39772 4.90293 4.24143 4.92743 4.12584C5.13218 3.15959 4.565 2.18075 3.60675 1.84665C3.39831 1.77396 3.3125 1.76171 3.00431 1.76065C2.59946 1.75921 2.44643 1.79259 2.09806 1.95837C1.77193 2.11356 1.37759 2.50634 1.21546 2.8375C0.932871 3.41462 0.932121 4.0315 1.21328 4.61828C1.37543 4.95672 1.73621 5.312 2.09806 5.48953C2.70928 5.78946 3.34246 5.78137 3.92681 5.46615L4.15168 5.34487L4.75768 5.85947C5.091 6.14253 5.38109 6.39081 5.40237 6.41125C5.43297 6.44059 5.41453 6.5024 5.31462 6.70559C4.88356 7.58218 4.93506 8.70509 5.44365 9.519C5.51137 9.6274 5.56681 9.72575 5.56681 9.73753C5.56681 9.74931 5.18562 10.1403 4.71975 10.6064L3.87265 11.4539L3.70028 11.3501C3.39168 11.1643 2.86768 11.0239 2.49075 11.0261C1.55918 11.0314 0.663684 11.5872 0.256027 12.413C-0.208285 13.3537 -0.0303164 14.4797 0.70259 15.2387C1.95868 16.5395 4.13722 16.1008 4.78987 14.4156C4.95634 13.9859 5.01009 13.5269 4.94022 13.1323C4.89059 12.852 4.76396 12.4905 4.64793 12.2978L4.54412 12.1254L5.39162 11.2783C5.85775 10.8124 6.24884 10.4312 6.26078 10.4312C6.27268 10.4312 6.3459 10.4741 6.42346 10.5264C6.91162 10.8559 7.67559 11.0347 8.29337 10.9642C8.45234 10.946 8.61162 10.9231 8.64731 10.9133C8.70656 10.8971 8.75859 11.0051 9.24578 12.1554L9.77937 13.4153L9.66222 13.5425C9.24503 13.995 9.1669 14.6653 9.466 15.2258C9.5849 15.4486 9.89053 15.7471 10.1016 15.8464C10.8583 16.2027 11.7381 15.8997 12.0891 15.1619C12.1472 15.0395 12.2103 14.8462 12.2292 14.7323C12.3381 14.075 11.9163 13.361 11.2842 13.1327C11.2076 13.1051 11.0327 13.066 10.8957 13.0459L10.6464 13.0094L10.1232 11.775C9.83553 11.0961 9.59968 10.5336 9.59915 10.525C9.59862 10.5164 9.66184 10.4692 9.73968 10.42C9.93656 10.2956 10.3109 9.91381 10.4588 9.68665C10.5268 9.58218 10.591 9.49953 10.6014 9.50303C10.6118 9.50653 11.1623 9.71828 11.8247 9.97362L13.0292 10.4379L13.0507 10.6097C13.1214 11.1757 13.4193 11.6081 13.8967 11.8377C14.862 12.3018 16.0072 11.5823 16.0036 10.5139C16.0021 10.0789 15.8754 9.76553 15.5847 9.47784C15.2759 9.17228 14.9243 9.025 14.5034 9.025C14.1382 9.025 13.8153 9.15296 13.552 9.40196L13.392 9.55328L12.1653 9.081L10.9386 8.60868L10.9631 8.43403C11.0572 7.7644 10.889 6.94859 10.5513 6.43578C10.4911 6.34434 10.4418 6.26015 10.4418 6.24868C10.4418 6.23722 11.0178 5.65197 11.7218 4.94809L13.0019 3.66837L13.1203 3.73443C13.3533 3.86446 13.6871 3.94384 14.0043 3.94468C14.3673 3.94565 14.5658 3.9 14.9088 3.73671C15.1209 3.63575 15.2222 3.56128 15.4254 3.35712C15.7112 3.06996 15.8727 2.78506 15.9593 2.41562C16.0332 2.10015 16.0079 1.612 15.9031 1.32993C15.6841 0.74084 15.2583 0.314934 14.6681 0.0946836C14.3997 -0.00550395 13.8452 -0.0314727 13.5516 0.0423711Z" fill="currentColor"/>
</svg>
